# File created by Blade
# Date/Time:  Mon Sep 22 16:45:27 2014
# Frame Rate: 120.000 fps
#------------------------------------------------------
:FULLY-SPECIFIED
:DEGREES
2835
root 5.502338 39.425494 0.377596 33.196439 26.210883 60.070545
RightUpLeg -3.787706 -23.050061 -46.222600
RightLeg 22.244235 -0.000000 -0.000000
RightFoot -29.470588 -32.826112 20.388545
RightToeBase 6.824458 -0.000000 -0.000000
LeftUpLeg -32.281271 28.494754 21.057712
LeftLeg 105.770775 -0.000000 -0.000000
LeftFoot 25.717597 21.877579 -25.423889
LeftToeBase 5.516069 -0.000000 -0.000000
Spine 15.358162 -9.144216 -28.555885
RightShoulder -7.173694 -15.585962 -22.790156
RightArm -13.354566 54.952132 39.783670
RightForeArm 18.568127 -0.000000 136.363015
RightHand 1.229150 -0.000000 -14.390199
RightHandThumb1 -24.326973 -0.000000 -32.862282
LeftShoulder -30.387398 32.685232 -8.241326
LeftArm 23.393452 -29.333961 -73.377152
LeftForeArm 12.883617 -0.000000 64.140493
LeftHand -24.254188 0.000000 9.183004
LeftHandThumb1 -26.253704 0.000000 33.147579
Head 0.322639 -25.204271 -15.953891
2836
root 5.444703 39.442137 0.391319 33.530133 26.423607 60.401677
RightUpLeg -3.629077 -23.094005 -46.261662
RightLeg 22.091166 -0.000000 -0.000000
RightFoot -29.419318 -33.280214 20.298267
RightToeBase 6.874674 -0.000000 -0.000000
LeftUpLeg -32.553677 28.446091 21.153823
LeftLeg 101.951562 -0.000000 -0.000000
LeftFoot 25.817034 22.206584 -25.143025
LeftToeBase 5.275300 -0.000000 -0.000000
Spine 15.444292 -9.350777 -28.847042
RightShoulder -7.284298 -15.629623 -22.635993
RightArm -13.592348 54.931129 39.776941
RightForeArm 18.611500 -0.000000 136.508500
RightHand 1.208642 -0.000000 -14.249089
RightHandThumb1 -24.326973 -0.000000 -32.862282
LeftShoulder -30.345281 32.674481 -8.087485
LeftArm 23.500734 -29.396902 -73.381294
LeftForeArm 12.631200 -0.000000 64.094302
LeftHand -24.130626 -0.000000 9.138681
LeftHandThumb1 -26.253704 0.000000 33.147579
Head 0.386663 -25.334584 -15.797225
2837
root 5.385228 39.459634 0.407604 33.851061 26.615747 60.716501
RightUpLeg -3.476822 -23.155991 -46.290707
RightLeg 21.920376 -0.000000 -0.000000
RightFoot -29.343953 -33.710061 20.140935
RightToeBase 7.061147 -0.000000 -0.000000
LeftUpLeg -32.647941 28.296428 21.293469
LeftLeg 97.829970 -0.000000 -0.000000
LeftFoot 25.793534 22.517155 -25.236477
LeftToeBase 5.587500 -0.000000 -0.000000
Spine 15.532338 -9.515645 -29.134688
RightShoulder -7.426543 -15.698208 -22.503437
RightArm -13.704548 54.895654 39.936452
RightForeArm 18.608359 -0.000000 136.602951
RightHand 1.279628 -0.000000 -14.102447
RightHandThumb1 -24.326973 -0.000000 -32.862282
LeftShoulder -30.269140 32.634501 -7.898055
LeftArm 23.565110 -29.478251 -73.384772
LeftForeArm 12.694788 -0.000000 63.987325
LeftHand -24.235492 -0.000000 9.391167
LeftHandThumb1 -26.253704 0.000000 33.147579
Head 0.428381 -25.441883 -15.622104
2838
root 5.324883 39.476788 0.427019 34.162020 26.785781 61.018083
RightUpLeg -3.331984 -23.246487 -46.319496
RightLeg 21.743742 -0.000000 -0.000000
RightFoot -29.267924 -34.047018 20.049754
RightToeBase 7.129723 -0.000000 -0.000000
LeftUpLeg -32.546392 28.057419 21.458039
LeftLeg 93.373206 -0.000000 -0.000000
LeftFoot 26.043713 22.639448 -24.996420
LeftToeBase 5.501458 -0.000000 -0.000000
Spine 15.619562 -9.658256 -29.417256
RightShoulder -7.553680 -15.800809 -22.377808
RightArm -13.836636 54.896951 40.096545
RightForeArm 18.643669 -0.000000 136.715557
RightHand 1.197451 0.000000 -13.774001
RightHandThumb1 -24.326973 -0.000000 -32.862282
LeftShoulder -30.205982 32.624525 -7.734546
LeftArm 23.626196 -29.584249 -73.411402
LeftForeArm 12.524609 -0.000000 63.960255
LeftHand -24.203734 -0.000000 9.291290
LeftHandThumb1 -26.253704 0.000000 33.147579
Head 0.445368 -25.564113 -15.484097
